# xmcd
#
# Track frame offsets: 
#        150
#        13047
#        26959
#        39270
#        50731
#        63604
#        79776
#        96699
#        111639
#        129189
#        145106
#        161513
#        180087
#        195264
#        216382
#        233501
#        259837
#        271395
#        287560
#        301191
#
# Disc length: 4194 seconds
#
# Revision: 0
# Processed by: cddbd v1.5.2PL0 Copyright (c) Steve Scherf et al.
# Submitted via: ExactAudioCopyFreeDBPlugin 1.0
#
DISCID=1b106014
DTITLE=John Williamson - Country Classics - John Williamson
DYEAR=1991
DGENRE=Country
TTITLE0=Old Man Emu
TTITLE1=Comic Strip Cowboy
TTITLE2=Big Country Round
TTITLE3=It's a Grab it While it's Going Kinda Life
TTITLE4=Boyhood Story
TTITLE5=Leave The Lights On
TTITLE6=Springbrook
TTITLE7=Only a Dog
TTITLE8=Murrumbidgee Madness
TTITLE9=Hawkesbury River Lovin'
TTITLE10=Diggers of the Anzacs
TTITLE11=The Breaker
TTITLE12=Just a Dog
TTITLE13=Wrinkles
TTITLE14=The Vasectomy Song
TTITLE15=And the Band Played Waltzing Matilda
TTITLE16=Chain Around My ankle
TTITLE17=I Can't Feel These Chains Any Longer
TTITLE18=Home Among the Gum Trees
TTITLE19=Waltzing Matilda
EXTD=
EXTT0=
EXTT1=
EXTT2=
EXTT3=
EXTT4=
EXTT5=
EXTT6=
EXTT7=
EXTT8=
EXTT9=
EXTT10=
EXTT11=
EXTT12=
EXTT13=
EXTT14=
EXTT15=
EXTT16=
EXTT17=
EXTT18=
EXTT19=
PLAYORDER=
